<svg width="378" height="317" viewBox="0 0 378 317" fill="none" xmlns="http://www.w3.org/2000/svg">
<path d="M141.75 235.65V281.25L165 289.65V304.05L61.05 266.25V250.5L165 212.85V227.25L141.75 235.65ZM130.65 239.55L77.85 258.45L130.65 277.35V239.55ZM111.15 144.026C111.75 140.226 113.3 136.776 115.8 133.676C118.3 130.476 121.4 127.976 125.1 126.176C128.8 124.276 132.75 123.326 136.95 123.326C142.25 123.326 147.05 124.676 151.35 127.376C155.55 130.076 158.9 134.026 161.4 139.226C163.8 144.326 165 150.376 165 157.376V196.376H60.45L60.45 158.876C60.45 151.776 61.65 145.726 64.05 140.726C66.35 135.726 69.5 131.976 73.5 129.476C77.5 126.976 82 125.726 87 125.726C93.2 125.726 98.35 127.426 102.45 130.826C106.45 134.126 109.35 138.526 111.15 144.026ZM105.6 182.726V159.776C105.6 153.376 104.1 148.426 101.1 144.926C98.1 141.426 93.95 139.676 88.65 139.676C83.35 139.676 79.2 141.426 76.2 144.926C73.2 148.426 71.7 153.476 71.7 160.076V182.726L105.6 182.726ZM153.75 158.576C153.75 151.776 152.15 146.476 148.95 142.676C145.75 138.876 141.3 136.976 135.6 136.976C129.8 136.976 125.25 138.976 121.95 142.976C118.55 146.976 116.85 152.326 116.85 159.026V182.726H153.75V158.576ZM112.65 109.484C102.45 109.484 93.3 107.184 85.2 102.584C77 97.9836 70.6 91.7336 66 83.8336C61.4 75.8336 59.1 66.9836 59.1 57.2836C59.1 45.8836 61.85 35.9336 67.35 27.4336C72.85 18.9336 80.65 12.7336 90.75 8.83357V25.1836C84.45 28.0836 79.6 32.2836 76.2 37.7836C72.8 43.1836 71.1 49.6836 71.1 57.2836C71.1 64.5836 72.8 71.1336 76.2 76.9336C79.6 82.7336 84.45 87.2836 90.75 90.5836C96.95 93.8836 104.25 95.5336 112.65 95.5336C120.95 95.5336 128.25 93.8836 134.55 90.5836C140.75 87.2836 145.55 82.7336 148.95 76.9336C152.35 71.1336 154.05 64.5836 154.05 57.2836C154.05 49.6836 152.4 43.1836 149.1 37.7836C145.7 32.2836 140.85 28.0836 134.55 25.1836V8.83357C144.55 12.7336 152.3 18.9336 157.8 27.4336C163.2 35.9336 165.9 45.8836 165.9 57.2836C165.9 66.9836 163.65 75.8336 159.15 83.8336C154.55 91.7336 148.2 97.9836 140.1 102.584C132 107.184 122.85 109.484 112.65 109.484Z" fill="#292929"/>
<path d="M199.2 109V165.7C199.2 170.6 199.75 174.35 200.85 176.95C201.95 179.55 203.7 181.4 206.1 182.5C208.5 183.5 211.85 184 216.15 184H224.7V187H215.85C208.85 187 203.8 185.4 200.7 182.2C197.7 179 196.2 173.5 196.2 165.7V109H183V106H196.2V85.3H199.2V106H224.7V109H199.2ZM278.684 185.35C287.784 185.35 295.434 183.05 301.634 178.45C307.834 173.85 311.584 167.55 312.884 159.55H315.884C314.484 168.05 310.484 174.95 303.884 180.25C297.384 185.45 288.984 188.05 278.684 188.05C271.184 188.05 264.484 186.4 258.584 183.1C252.684 179.8 248.034 175 244.634 168.7C241.334 162.4 239.684 155 239.684 146.5C239.684 138 241.334 130.6 244.634 124.3C248.034 118 252.684 113.2 258.584 109.9C264.484 106.6 271.184 104.95 278.684 104.95C286.584 104.95 293.334 106.65 298.934 110.05C304.534 113.35 308.734 117.65 311.534 122.95C314.434 128.25 315.884 133.85 315.884 139.75C315.884 143.35 315.834 146.05 315.734 147.85H242.684C242.784 156.15 244.484 163.1 247.784 168.7C251.184 174.3 255.584 178.5 260.984 181.3C266.384 184 272.284 185.35 278.684 185.35ZM278.684 107.65C272.284 107.65 266.384 109.05 260.984 111.85C255.584 114.55 251.184 118.7 247.784 124.3C244.484 129.9 242.784 136.85 242.684 145.15H313.184C313.684 136.85 312.334 129.9 309.134 124.3C306.034 118.7 301.734 114.55 296.234 111.85C290.834 109.05 284.984 107.65 278.684 107.65ZM189 268.5C189 260 190.65 252.6 193.95 246.3C197.35 240 202 235.2 207.9 231.9C213.8 228.6 220.5 226.95 228 226.95C238.3 226.95 246.7 229.6 253.2 234.9C259.8 240.1 263.8 246.95 265.2 255.45H262.2C260.9 247.45 257.15 241.15 250.95 236.55C244.75 231.95 237.1 229.65 228 229.65C221.5 229.65 215.5 231.1 210 234C204.6 236.8 200.25 241.1 196.95 246.9C193.65 252.7 192 259.9 192 268.5C192 277.1 193.65 284.3 196.95 290.1C200.25 295.9 204.6 300.25 210 303.15C215.5 305.95 221.5 307.35 228 307.35C237.1 307.35 244.75 305.05 250.95 300.45C257.15 295.85 260.9 289.55 262.2 281.55H265.2C263.8 290.05 259.8 296.95 253.2 302.25C246.7 307.45 238.3 310.05 228 310.05C220.5 310.05 213.8 308.4 207.9 305.1C202 301.8 197.35 297 193.95 290.7C190.65 284.4 189 277 189 268.5ZM321.739 226.2C331.239 226.2 339.039 229.15 345.139 235.05C351.239 240.95 354.289 249.85 354.289 261.75V309H351.439V261.45C351.439 250.85 348.789 242.8 343.489 237.3C338.189 231.7 330.939 228.9 321.739 228.9C312.139 228.9 304.439 232.05 298.639 238.35C292.839 244.55 289.939 253.75 289.939 265.95V309H286.939V198H289.939V249.3C291.839 241.8 295.639 236.1 301.339 232.2C307.039 228.2 313.839 226.2 321.739 226.2Z" fill="#292929"/>
<rect x="180" width="87" height="25" fill="#4871F7"/>
<rect x="267" y="50" width="87" height="25" fill="#F7D448"/>
<rect x="223" y="25" width="87" height="25" fill="#F7484E"/>
</svg>
